<?xml version="1.0" standalone="no"?>
<!DOCTYPE svg PUBLIC "-//W3C//DTD SVG 20010904//EN"
 "http://www.w3.org/TR/2001/REC-SVG-20010904/DTD/svg10.dtd">
<svg version="1.0" xmlns="http://www.w3.org/2000/svg"
 width="200.000000pt" height="200.000000pt" viewBox="0 0 200.000000 200.000000"
 preserveAspectRatio="xMidYMid meet">

<g transform="translate(0.000000,200.000000) scale(0.100000,-0.100000)"
fill="#000000" stroke="none">
<path d="M1073 1305 c-4 -11 0 -21 10 -27 21 -11 22 -64 2 -72 -8 -3 -15 -12
-15 -21 0 -8 7 -15 15 -15 10 0 15 -10 15 -33 0 -28 -5 -35 -33 -45 -44 -16
-47 -15 -47 9 0 16 5 20 20 16 18 -5 20 0 20 41 0 34 -3 43 -11 35 -14 -14
-39 -6 -39 13 0 20 30 30 41 13 6 -9 9 1 9 32 l0 46 -36 -1 c-68 -3 -154 -97
-154 -169 0 -58 27 -105 101 -178 l67 -66 -59 -69 c-55 -64 -66 -89 -43 -89 6
0 38 33 73 73 34 40 66 70 72 67 5 -4 9 10 9 29 0 25 4 36 15 36 11 0 15 -12
15 -46 0 -42 -5 -52 -65 -120 -36 -41 -65 -79 -65 -84 0 -29 27 -11 87 60 59
71 71 80 93 75 14 -4 27 -8 29 -11 5 -4 3 -6 -82 -105 -31 -36 -57 -71 -57
-78 0 -29 32 -3 105 84 44 52 87 95 96 95 21 0 43 26 61 70 8 19 65 94 126
165 62 72 111 134 109 138 -7 22 -28 4 -119 -101 l-98 -112 0 43 c0 40 7 51
75 131 75 88 83 100 66 110 -7 5 -44 -34 -132 -138 -4 -5 -11 8 -14 28 -7 33
-3 41 39 90 25 30 46 59 46 65 0 23 -28 9 -59 -29 -17 -22 -35 -40 -40 -40 -4
0 -14 14 -22 32 -8 17 -24 35 -36 39 -21 8 -23 6 -23 -31 0 -29 4 -38 13 -34
8 3 19 -1 26 -9 9 -11 8 -17 -5 -28 -13 -11 -17 -10 -25 2 -6 10 -9 5 -9 -18
0 -17 -3 -38 -6 -46 -4 -11 1 -13 20 -10 19 4 26 1 26 -10 0 -25 -17 -29 -55
-15 -33 11 -35 15 -29 42 4 17 13 36 22 42 17 12 8 34 -14 34 -17 0 -9 46 13
71 11 14 11 18 -1 28 -19 16 -28 1 -31 -48 -5 -91 -29 -297 -34 -303 -4 -5
-15 67 -25 160 -10 92 -18 173 -19 181 -3 21 -26 25 -34 6z m27 -301 c0 -59
-14 -72 -24 -23 -11 57 -8 89 9 83 11 -5 15 -21 15 -60z m125 1 c-9 -65 -25
-66 -25 -1 0 34 5 56 13 59 17 6 20 -8 12 -58z m-88 -152 c-2 -16 -4 -3 -4 27
0 30 2 43 4 28 2 -16 2 -40 0 -55z m33 26 c0 -31 -4 -48 -10 -44 -5 3 -10 26
-10 51 0 24 5 44 10 44 6 0 10 -23 10 -51z m38 -1 l-2 -53 -5 50 -5 50 -6 -50
-7 -50 -1 53 c-2 40 1 52 13 52 12 0 15 -12 13 -52z"/>
<path d="M646 943 c-11 -11 -6 -23 9 -23 8 0 15 4 15 9 0 13 -16 22 -24 14z"/>
<path d="M1500 880 c0 -73 16 -98 22 -33 4 52 28 56 28 4 0 -23 5 -41 10 -41
6 0 10 21 10 46 0 44 -1 46 -25 42 -22 -5 -25 -2 -25 23 0 16 -4 29 -10 29 -6
0 -10 -30 -10 -70z"/>
<path d="M320 854 c0 -24 5 -44 10 -44 6 0 10 16 10 35 0 24 5 35 15 35 10 0
15 -11 15 -35 0 -19 5 -35 10 -35 6 0 10 16 10 35 0 24 5 35 15 35 10 0 15
-11 15 -35 0 -19 5 -35 10 -35 11 0 13 60 2 76 -4 6 -31 11 -59 11 l-53 0 0
-43z"/>
<path d="M460 878 c0 -51 10 -66 43 -65 31 1 32 2 28 44 -4 53 -19 56 -23 6
-2 -21 -7 -38 -13 -38 -5 0 -11 17 -13 38 -3 39 -22 52 -22 15z"/>
<path d="M563 883 c-4 -10 2 -23 15 -34 26 -20 28 -29 7 -29 -8 0 -15 5 -15
11 0 5 -5 7 -10 4 -16 -10 -1 -25 25 -25 32 0 37 20 12 47 -11 13 -17 26 -13
30 4 4 11 1 16 -7 8 -13 10 -12 10 3 0 22 -38 23 -47 0z"/>
<path d="M640 855 c0 -25 5 -45 10 -45 6 0 10 20 10 45 0 25 -4 45 -10 45 -5
0 -10 -20 -10 -45z"/>
<path d="M692 888 c-7 -7 -12 -18 -12 -25 0 -16 36 -53 51 -53 6 0 3 7 -5 16
-9 8 -16 27 -16 40 0 21 4 24 20 19 11 -4 20 -2 20 4 0 15 -43 14 -58 -1z"/>
<path d="M1102 875 c0 -16 2 -22 5 -12 2 9 2 23 0 30 -3 6 -5 -1 -5 -18z"/>
<path d="M1413 883 c-4 -11 1 -22 15 -31 28 -18 29 -35 2 -27 -11 4 -20 2 -20
-4 0 -6 14 -11 30 -11 23 0 30 4 30 20 0 11 -9 25 -20 32 -11 7 -20 16 -20 20
0 13 28 9 33 -4 3 -8 6 -6 6 5 1 23 -47 23 -56 0z"/>
<path d="M1604 876 c-8 -34 12 -68 38 -64 28 4 42 29 34 61 -5 22 -12 27 -36
27 -23 0 -31 -5 -36 -24z m51 3 c9 -14 -3 -59 -15 -59 -6 0 -10 16 -10 35 0
34 12 46 25 24z"/>
<path d="M1705 835 c0 -45 4 -65 13 -65 6 0 12 7 12 15 0 8 12 26 26 40 37 37
30 69 -16 73 l-35 3 0 -66z m53 34 c1 -8 -4 -23 -12 -34 -15 -19 -15 -18 -16
18 0 27 4 37 13 35 6 -3 13 -11 15 -19z"/>
</g>
</svg>
